<svg width="148" height="30" viewBox="0 0 148 30" fill="none" xmlns="http://www.w3.org/2000/svg">
        <mask id="mask0_7820_8065" style="mask-type:alpha" maskUnits="userSpaceOnUse" x="0" y="0" width="71" height="26">
        <path fill-rule="evenodd" clip-rule="evenodd" d="M0.000488281 0H70.077V25.1678H0.000488281V0Z" fill="white"></path>
        </mask>
        <g mask="url(#mask0_7820_8065)">
        <path fill-rule="evenodd" clip-rule="evenodd" d="M32.6338 6.27122V1.78315C32.6338 0.798453 31.8398 0 30.8612 0H29.0461V8.05374H30.8612C31.8398 8.05374 32.6338 7.25529 32.6338 6.27122ZM32.065 17.476L30.3169 18.3072C29.4566 16.5624 29.0442 14.6918 29.0461 12.8363V12.8357C29.0461 12.7513 29.0599 12.584 29.0524 12.584L29.0461 12.8357V9.49838H30.8399C31.8304 9.49838 32.6338 10.2868 32.6338 11.2601L32.6238 12.584C32.6213 12.6683 32.6238 12.752 32.6238 12.8357C32.6232 13.6933 32.7483 14.5502 32.9986 15.382C33.2476 16.2126 32.8578 17.0985 32.065 17.476ZM39.6746 21.4248C38.8162 21.2216 37.9978 20.8995 37.242 20.4697C36.4855 20.0419 35.7923 19.5071 35.1835 18.8785C34.5759 18.2512 33.5998 18.1398 32.8709 18.6255L31.2635 19.6971C32.3716 21.3003 33.8157 22.5863 35.4525 23.5132H35.4531C37.0887 24.4425 38.9451 25.0276 40.9129 25.168L41.0543 23.2659C41.1181 22.402 40.5318 21.6281 39.6746 21.4248ZM19.0339 18.8785C18.4388 19.5071 17.7619 20.0419 17.0235 20.4697C16.2852 20.8995 15.4869 21.2216 14.6478 21.4248C13.8106 21.6281 13.2381 22.402 13.3013 23.2659L13.4384 25.168C15.3611 25.0276 17.1731 24.4425 18.7705 23.5132H18.7711C20.3697 22.5863 21.7794 21.3003 22.8618 19.6971L21.2926 18.6255C20.5799 18.1398 19.627 18.2512 19.0339 18.8785ZM11.5888 0C9.66735 0.140941 7.85411 0.725466 6.25736 1.65479L6.25673 1.65542C4.65748 2.5816 3.24781 3.86768 2.166 5.47151L3.73522 6.54241C4.44725 7.02878 5.40079 6.91678 5.99394 6.28947C6.58835 5.6609 7.26534 5.12671 8.00427 4.69823C8.74196 4.26848 9.54158 3.94633 10.38 3.7431C11.2172 3.5405 11.7897 2.76596 11.7271 1.9027L11.5888 0ZM10.38 21.4248C9.54158 21.2216 8.74196 20.8995 8.00427 20.4697C7.26534 20.0419 6.58835 19.5071 5.99394 18.8785C5.40079 18.2512 4.44725 18.1398 3.73522 18.6255L2.166 19.6971C3.24781 21.3003 4.65748 22.5863 6.25673 23.5132H6.25736C7.85411 24.4425 9.66735 25.0276 11.5888 25.168L11.7271 23.2659C11.7897 22.402 11.2172 21.6281 10.38 21.4248ZM14.6478 3.7431C15.4869 3.94633 16.2852 4.26848 17.0235 4.69823C17.7619 5.12671 18.4388 5.6609 19.0339 6.28947C19.627 6.91678 20.5799 7.02878 21.2926 6.54241L22.8618 5.47151C21.7794 3.86768 20.3697 2.5816 18.7711 1.65542V1.65479H18.7705C17.1731 0.725466 15.3611 0.140941 13.4384 0L13.3013 1.9027C13.2381 2.76596 13.8106 3.5405 14.6478 3.7431ZM3.86035 15.131C3.61571 14.2985 3.4937 13.4416 3.49433 12.584C3.4937 11.7264 3.61571 10.87 3.86035 10.0376C4.10375 9.20769 3.72333 8.32178 2.94873 7.94426L1.24123 7.11309C0.400934 8.85723 -0.00138224 10.7278 0.000494819 12.5833V12.584V12.5846C-0.00138224 14.4401 0.400934 16.3113 1.24123 18.0555L2.94873 17.2237C3.72333 16.8468 4.10375 15.9609 3.86035 15.131ZM64.0833 18.8785C63.4883 19.5071 62.8113 20.0419 62.073 20.4697C61.3346 20.8995 60.5363 21.2216 59.6972 21.4248C58.8601 21.6281 58.2875 22.402 58.3507 23.2659L58.4878 25.168C60.4105 25.0276 62.2225 24.4425 63.8199 23.5132H63.8205C65.4191 22.5863 66.8288 21.3003 67.9112 19.6971L66.342 18.6255C65.6294 18.1398 64.6764 18.2512 64.0833 18.8785ZM56.6382 0C54.7168 0.140941 52.9035 0.725466 51.3068 1.65479L51.3061 1.65542C49.7069 2.5816 48.2972 3.86768 47.2154 5.47151L48.7846 6.54241C49.4967 7.02878 50.4502 6.91678 51.0434 6.28947C51.6378 5.6609 52.3148 5.12671 53.0537 4.69823C53.7914 4.26848 54.591 3.94633 55.4294 3.7431C56.2666 3.5405 56.8391 2.76596 56.7765 1.9027L56.6382 0ZM55.4294 21.4248C54.591 21.2216 53.7914 20.8995 53.0537 20.4697C52.3148 20.0419 51.6378 19.5071 51.0434 18.8785C50.4502 18.2512 49.4967 18.1398 48.7846 18.6255L47.2154 19.6971C48.2972 21.3003 49.7069 22.5863 51.3061 23.5132H51.3068C52.9035 24.4425 54.7168 25.0276 56.6382 25.168L56.7765 23.2659C56.8391 22.402 56.2666 21.6281 55.4294 21.4248ZM59.6972 3.7431C60.5363 3.94633 61.3346 4.26848 62.073 4.69823C62.8113 5.12671 63.4883 5.6609 64.0833 6.28947C64.6764 6.91678 65.6294 7.02878 66.342 6.54241L67.9112 5.47151C66.8288 3.86768 65.4191 2.5816 63.8205 1.65542V1.65479H63.8199C62.2225 0.725466 60.4105 0.140941 58.4878 0L58.3507 1.9027C58.2875 2.76596 58.8601 3.5405 59.6972 3.7431ZM48.9098 15.131C48.6651 14.2985 48.5431 13.4416 48.5437 12.584C48.5431 11.7264 48.6651 10.87 48.9098 10.0376C49.1532 9.20769 48.7727 8.32178 47.9981 7.94426L46.2906 7.11309C45.4503 8.85723 45.048 10.7278 45.0499 12.5833V12.584V12.5846C45.048 14.4401 45.4503 16.3113 46.2906 18.0555L47.9981 17.2237C48.7727 16.8468 49.1532 15.9609 48.9098 15.131ZM70.0774 12.584V12.5846C70.0786 14.4401 69.6757 16.3113 68.836 18.0555L67.1291 17.2237C66.3545 16.8468 65.9735 15.9609 66.2175 15.131C66.4609 14.2985 66.5835 13.4416 66.5829 12.584C66.5835 11.7264 66.4609 10.87 66.2175 10.0376C65.9735 9.20769 66.3545 8.32178 67.1291 7.94426L68.836 7.11309C69.6757 8.85723 70.0786 10.7278 70.0774 12.5833V12.584Z" fill="white"></path>
        </g>
        <path d="M84.6127 16.9327C83.932 15.9059 82.5104 15.3623 81.169 15.3623C79.367 15.3623 77.585 16.228 77.585 18.2818C77.585 20.0737 79.0867 20.6173 80.3481 20.9194C81.9698 21.3019 82.8308 21.6241 82.8308 22.51C82.8308 23.557 81.8897 23.8992 80.9487 23.8992C79.8875 23.8992 78.9265 23.3153 78.4259 22.5704L77.0845 23.718C77.9855 24.8657 79.4671 25.4295 80.9087 25.4295C82.8308 25.4295 84.6928 24.6039 84.6928 22.3489C84.6928 20.6777 83.3113 19.9328 81.5093 19.5301C80.0677 19.2079 79.347 18.9059 79.347 18.1005C79.347 17.1945 80.2479 16.8522 81.1089 16.8522C82.0699 16.8522 82.8908 17.3556 83.3113 18.0401L84.6127 16.9327Z" fill="white"></path>
        <path d="M95.5514 25.1677C95.4914 24.5435 95.4714 23.6174 95.4714 23.114V15.624H93.5893V20.6979C93.5893 22.5905 92.5482 23.8388 91.0465 23.8388C89.3046 23.8388 88.8841 22.4697 88.8841 20.8992V15.624H87.0021V21.5435C87.0021 23.6778 88.1033 25.4295 90.546 25.4295C91.9275 25.4295 93.1688 24.6039 93.6494 23.5972H93.6894C93.6894 23.9999 93.7295 24.6845 93.7695 25.1677H95.5514Z" fill="white"></path>
        <path d="M100.618 23.7382H100.678C101.378 24.8053 102.68 25.4295 104.021 25.4295C106.945 25.4295 108.807 23.1744 108.807 20.3757C108.807 17.5569 106.885 15.3623 104.061 15.3623C102.5 15.3623 101.258 16.1072 100.638 17.114H100.578V15.624H98.7356V29.9999H100.618V23.7382ZM106.864 20.3757C106.864 22.1677 105.763 23.8388 103.701 23.8388C101.779 23.8388 100.497 22.2281 100.497 20.3959C100.497 18.5636 101.779 16.9327 103.701 16.9327C105.763 16.9327 106.864 18.5838 106.864 20.3757Z" fill="white"></path>
        <path d="M113.307 23.7382H113.367C114.068 24.8053 115.37 25.4295 116.711 25.4295C119.634 25.4295 121.496 23.1744 121.496 20.3757C121.496 17.5569 119.574 15.3623 116.751 15.3623C115.189 15.3623 113.948 16.1072 113.327 17.114H113.267V15.624H111.425V29.9999H113.307V23.7382ZM119.554 20.3757C119.554 22.1677 118.453 23.8388 116.391 23.8388C114.469 23.8388 113.187 22.2281 113.187 20.3959C113.187 18.5636 114.469 16.9327 116.391 16.9327C118.453 16.9327 119.554 18.5838 119.554 20.3757Z" fill="white"></path>
        <path d="M133.726 20.3757C133.726 17.4361 131.503 15.3623 128.6 15.3623C125.697 15.3623 123.494 17.4361 123.494 20.3757C123.494 23.3153 125.697 25.4295 128.6 25.4295C131.503 25.4295 133.726 23.3153 133.726 20.3757ZM131.763 20.3757C131.763 22.1878 130.642 23.8388 128.6 23.8388C126.578 23.8388 125.436 22.1878 125.436 20.3757C125.436 18.5636 126.578 16.9327 128.6 16.9327C130.642 16.9327 131.763 18.5636 131.763 20.3757Z" fill="white"></path>
        <path d="M136.335 17.6777V25.1677H138.217V20.1542C138.217 18.5636 139.078 17.0938 140.88 17.0938C141.181 17.0938 141.501 17.1341 141.741 17.1945L141.821 15.4428C141.601 15.3824 141.341 15.3623 141.081 15.3623C139.799 15.3623 138.698 16.1274 138.177 17.2348H138.117C138.117 16.8321 138.077 16.1072 138.037 15.624H136.255C136.315 16.2482 136.335 17.1744 136.335 17.6777Z" fill="white"></path>
        <path d="M148 15.624H145.477V12.8857H143.615V15.624H141.793V17.1744H143.615V22.3489C143.615 24.3221 144.596 25.3288 146.378 25.3288C146.959 25.3288 147.539 25.2281 147.98 25.067L147.92 23.5167C147.599 23.6778 147.159 23.7583 146.819 23.7583C145.878 23.7583 145.477 23.2952 145.477 22.1475V17.1744H148V15.624Z" fill="white"></path>
      </svg>



      <svg viewBox="0 0 70 25" width="70" height="25" class="primary" fill="none" xmlns="http://www.w3.org/2000/svg" data-v-13295940=""><path fill-rule="evenodd" clip-rule="evenodd" d="M32.598 6.22925V1.77113C32.598 0.793003 31.8049 -0.00012207 30.8274 -0.00012207H29.0142V7.99988H30.8274C31.8049 7.99988 32.598 7.20675 32.598 6.22925ZM32.0299 17.3593L30.2836 18.1849C29.4242 16.4518 29.0124 14.5936 29.0142 12.7505V12.7499C29.0142 12.6661 29.028 12.4999 29.0205 12.4999L29.0142 12.7499V9.43488H30.8061C31.7955 9.43488 32.598 10.218 32.598 11.1849L32.588 12.4999C32.5855 12.5836 32.588 12.6668 32.588 12.7499C32.5874 13.6018 32.7124 14.453 32.9624 15.2793C33.2111 16.1043 32.8217 16.9843 32.0299 17.3593ZM39.6311 21.2818C38.7736 21.0799 37.9561 20.7599 37.2011 20.333C36.4455 19.908 35.753 19.3768 35.1449 18.7524C34.538 18.1293 33.563 18.0186 32.8349 18.5011L31.2292 19.5655C32.3361 21.158 33.7786 22.4355 35.4136 23.3561H35.4142C37.048 24.2793 38.9024 24.8605 40.868 24.9999L41.0092 23.1105C41.073 22.2524 40.4874 21.4836 39.6311 21.2818ZM19.013 18.7524C18.4186 19.3768 17.7424 19.908 17.0049 20.333C16.2674 20.7599 15.4699 21.0799 14.6317 21.2818C13.7955 21.4836 13.2236 22.2524 13.2867 23.1105L13.4236 24.9999C15.3442 24.8605 17.1542 24.2793 18.7499 23.3561H18.7505C20.3474 22.4355 21.7555 21.158 22.8367 19.5655L21.2692 18.5011C20.5574 18.0186 19.6055 18.1293 19.013 18.7524ZM11.5761 -0.00012207C9.65674 0.139878 7.84549 0.720503 6.25049 1.64363L6.24987 1.64425C4.65237 2.56425 3.24424 3.84175 2.16362 5.43488L3.73112 6.49863C4.44237 6.98175 5.39487 6.8705 5.98737 6.24738C6.58112 5.623 7.25737 5.09238 7.99549 4.66675C8.73237 4.23988 9.53112 3.91988 10.3686 3.718C11.2049 3.51675 11.7767 2.74738 11.7142 1.88988L11.5761 -0.00012207ZM10.3686 21.2818C9.53112 21.0799 8.73237 20.7599 7.99549 20.333C7.25737 19.908 6.58112 19.3768 5.98737 18.7524C5.39487 18.1293 4.44237 18.0186 3.73112 18.5011L2.16362 19.5655C3.24424 21.158 4.65237 22.4355 6.24987 23.3561H6.25049C7.84549 24.2793 9.65674 24.8605 11.5761 24.9999L11.7142 23.1105C11.7767 22.2524 11.2049 21.4836 10.3686 21.2818ZM14.6317 3.718C15.4699 3.91988 16.2674 4.23988 17.0049 4.66675C17.7424 5.09238 18.4186 5.623 19.013 6.24738C19.6055 6.8705 20.5574 6.98175 21.2692 6.49863L22.8367 5.43488C21.7555 3.84175 20.3474 2.56425 18.7505 1.64425V1.64363H18.7499C17.1542 0.720503 15.3442 0.139878 13.4236 -0.00012207L13.2867 1.88988C13.2236 2.74738 13.7955 3.51675 14.6317 3.718ZM3.85612 15.0299C3.61174 14.203 3.48987 13.3518 3.49049 12.4999C3.48987 11.648 3.61174 10.7974 3.85612 9.9705C4.09925 9.14613 3.71924 8.26613 2.94549 7.89113L1.23987 7.0655C0.400495 8.798 -0.00138019 10.6561 0.000494811 12.4993V12.4999V12.5005C-0.00138019 14.3436 0.400495 16.2024 1.23987 17.9349L2.94549 17.1086C3.71924 16.7343 4.09925 15.8543 3.85612 15.0299ZM64.013 18.7524C63.4186 19.3768 62.7424 19.908 62.0049 20.333C61.2674 20.7599 60.4699 21.0799 59.6317 21.2818C58.7955 21.4836 58.2236 22.2524 58.2867 23.1105L58.4236 24.9999C60.3442 24.8605 62.1542 24.2793 63.7499 23.3561H63.7505C65.3474 22.4355 66.7555 21.158 67.8367 19.5655L66.2692 18.5011C65.5574 18.0186 64.6055 18.1293 64.013 18.7524ZM56.5761 -0.00012207C54.6567 0.139878 52.8455 0.720503 51.2505 1.64363L51.2499 1.64425C49.6524 2.56425 48.2442 3.84175 47.1636 5.43488L48.7311 6.49863C49.4424 6.98175 50.3949 6.8705 50.9874 6.24738C51.5811 5.623 52.2574 5.09238 52.9955 4.66675C53.7324 4.23988 54.5311 3.91988 55.3686 3.718C56.2049 3.51675 56.7767 2.74738 56.7142 1.88988L56.5761 -0.00012207ZM55.3686 21.2818C54.5311 21.0799 53.7324 20.7599 52.9955 20.333C52.2574 19.908 51.5811 19.3768 50.9874 18.7524C50.3949 18.1293 49.4424 18.0186 48.7311 18.5011L47.1636 19.5655C48.2442 21.158 49.6524 22.4355 51.2499 23.3561H51.2505C52.8455 24.2793 54.6567 24.8605 56.5761 24.9999L56.7142 23.1105C56.7767 22.2524 56.2049 21.4836 55.3686 21.2818ZM59.6317 3.718C60.4699 3.91988 61.2674 4.23988 62.0049 4.66675C62.7424 5.09238 63.4186 5.623 64.013 6.24738C64.6055 6.8705 65.5574 6.98175 66.2692 6.49863L67.8367 5.43488C66.7555 3.84175 65.3474 2.56425 63.7505 1.64425V1.64363H63.7499C62.1542 0.720503 60.3442 0.139878 58.4236 -0.00012207L58.2867 1.88988C58.2236 2.74738 58.7955 3.51675 59.6317 3.718ZM48.8561 15.0299C48.6117 14.203 48.4899 13.3518 48.4905 12.4999C48.4899 11.648 48.6117 10.7974 48.8561 9.9705C49.0992 9.14613 48.7192 8.26613 47.9455 7.89113L46.2399 7.0655C45.4005 8.798 44.9986 10.6561 45.0005 12.4993V12.4999V12.5005C44.9986 14.3436 45.4005 16.2024 46.2399 17.9349L47.9455 17.1086C48.7192 16.7343 49.0992 15.8543 48.8561 15.0299ZM70.0005 12.4999V12.5005C70.0017 14.3436 69.5992 16.2024 68.7605 17.9349L67.0555 17.1086C66.2817 16.7343 65.9011 15.8543 66.1449 15.0299C66.388 14.203 66.5105 13.3518 66.5099 12.4999C66.5105 11.648 66.388 10.7974 66.1449 9.9705C65.9011 9.14613 66.2817 8.26613 67.0555 7.89113L68.7605 7.0655C69.5992 8.798 70.0017 10.6561 70.0005 12.4993V12.4999Z" data-v-13295940=""></path></svg>